<?xml version="1.0" standalone="no"?>
<!DOCTYPE svg PUBLIC "-//W3C//DTD SVG 20010904//EN"
 "http://www.w3.org/TR/2001/REC-SVG-20010904/DTD/svg10.dtd">
<svg version="1.0" xmlns="http://www.w3.org/2000/svg"
 width="512.000000pt" height="512.000000pt" viewBox="0 0 512.000000 512.000000"
 preserveAspectRatio="xMidYMid meet">
<metadata>
Created by potrace 1.14, written by Peter Selinger 2001-2017
</metadata>
<g transform="translate(0.000000,512.000000) scale(0.100000,-0.100000)"
fill="#000000" stroke="none">
<path d="M3726 4325 c-93 -35 -132 -93 -94 -140 29 -37 53 -40 107 -12 57 30
98 29 139 -3 64 -52 96 -193 65 -286 l-14 -41 -82 -1 c-94 -1 -198 -28 -370
-97 l-110 -44 -81 19 c-198 47 -421 58 -543 27 -136 -35 -234 -112 -275 -216
-18 -45 -22 -76 -22 -161 0 -94 3 -111 29 -168 18 -40 44 -77 73 -102 l44 -40
-26 -55 c-91 -192 -119 -413 -77 -613 30 -140 44 -163 116 -185 103 -32 213
-45 340 -42 66 2 135 7 153 10 63 12 192 54 240 78 l47 24 27 -38 c67 -94 168
-134 320 -127 78 4 107 10 151 31 154 76 227 246 213 502 -3 61 -7 124 -10
140 -12 75 -17 104 -32 168 l-16 67 42 98 c23 53 45 106 51 117 38 84 63 250
49 326 -8 44 6 56 85 67 91 14 188 -16 218 -67 23 -39 22 -58 -8 -113 -30 -57
-31 -68 -4 -102 15 -19 30 -26 55 -26 30 0 38 6 64 47 41 65 53 108 47 168 -9
92 -60 158 -154 202 -97 45 -206 49 -316 12 l-59 -20 -25 25 c-25 25 -25 25
-9 74 23 68 30 157 18 223 -22 115 -96 225 -180 265 -49 23 -137 28 -186 9z
m210 -640 c103 -43 134 -175 80 -340 -36 -109 -41 -116 -56 -69 -7 22 -33 85
-58 142 l-44 102 -72 34 c-39 18 -100 44 -135 57 l-65 23 35 15 c116 49 248
64 315 36z m-870 -69 c87 -10 109 -14 224 -42 117 -28 350 -104 350 -115 0
-10 -265 -139 -373 -183 -321 -129 -544 -151 -633 -62 -77 77 -66 262 18 337
33 29 127 65 183 71 45 5 163 1 231 -6z m765 -397 c76 -209 121 -434 122 -614
2 -151 -15 -224 -65 -281 -48 -55 -91 -72 -180 -72 -86 0 -147 23 -180 68 -69
95 -38 325 82 614 71 169 177 382 186 373 2 -2 18 -41 35 -88z m-275 0 c18
-20 18 -21 -4 -62 -12 -23 -31 -64 -42 -91 l-20 -49 -66 67 c-36 36 -62 70
-59 75 3 5 27 17 53 27 26 10 61 26 77 36 37 22 38 22 61 -3z m-303 -297 l148
-148 -20 -84 c-11 -47 -21 -96 -23 -110 -3 -22 -31 3 -235 208 -194 194 -228
233 -210 236 17 3 148 34 187 45 3 0 72 -66 153 -147z m-43 -563 c0 -9 -150
-49 -182 -49 -21 0 -67 41 -218 191 l-191 192 6 39 c4 22 15 69 27 106 l20 65
269 -269 c148 -148 269 -272 269 -275z"/>
<path d="M1075 2776 c-31 -31 -32 -57 -2 -90 17 -20 35 -26 87 -31 36 -4 96
-15 133 -25 53 -15 73 -17 92 -8 52 24 51 103 -1 127 -42 19 -137 40 -211 46
-68 6 -73 5 -98 -19z"/>
<path d="M819 2721 c-61 -38 -110 -90 -143 -150 -25 -47 -26 -52 -12 -79 16
-31 34 -42 70 -42 22 0 66 37 66 56 0 16 43 59 103 102 45 34 57 48 57 70 0
74 -63 93 -141 43z"/>
<path d="M1544 2640 c-31 -12 -53 -48 -48 -78 3 -14 34 -54 72 -91 37 -36 81
-83 98 -103 37 -45 73 -50 109 -14 41 41 21 87 -87 202 -60 63 -115 95 -144
84z"/>
<path d="M645 2338 c-26 -20 -27 -23 -21 -94 7 -81 45 -205 72 -235 26 -28 78
-25 103 6 22 29 22 34 -7 120 -11 33 -23 86 -27 118 -4 32 -15 67 -24 78 -24
29 -64 33 -96 7z"/>
<path d="M1766 2225 c-18 -19 -22 -33 -19 -62 8 -69 9 -148 3 -184 -10 -53 19
-120 57 -136 27 -11 44 -7 159 32 132 44 164 66 164 109 0 32 -36 66 -69 66
-16 0 -58 -11 -95 -25 -36 -14 -66 -24 -66 -22 -1 1 -3 38 -5 82 -6 106 -11
127 -36 148 -30 24 -66 21 -93 -8z"/>
<path d="M2294 2156 c-39 -19 -74 -41 -78 -51 -9 -26 -7 -58 7 -76 24 -32 62
-31 137 2 97 44 119 87 72 142 -22 25 -59 21 -138 -17z"/>
<path d="M873 1947 c-12 -5 -27 -23 -32 -39 -18 -51 10 -82 109 -121 63 -25
82 -30 160 -43 65 -11 110 49 80 106 -10 19 -47 34 -114 45 -21 3 -64 18 -95
32 -70 31 -81 33 -108 20z"/>
<path d="M1475 1897 c-66 -10 -130 -23 -142 -27 -44 -18 -42 -102 2 -122 44
-20 281 17 318 49 37 34 12 109 -39 116 -11 2 -73 -6 -139 -16z"/>
<path d="M1719 1783 c-9 -2 -39 -45 -66 -96 -28 -51 -61 -110 -74 -133 -20
-37 -21 -44 -10 -72 25 -60 93 -55 136 11 45 68 115 206 115 228 0 43 -53 75
-101 62z"/>
<path d="M1352 1285 c-106 -109 -120 -136 -88 -177 24 -33 68 -33 107 -1 54
45 159 156 175 185 24 45 -9 98 -60 98 -27 0 -47 -16 -134 -105z"/>
<path d="M1065 1077 c-27 -13 -84 -36 -125 -52 -41 -15 -83 -37 -92 -48 -41
-45 -7 -112 56 -110 50 1 254 91 272 119 22 33 10 80 -26 99 -35 18 -25 19
-85 -8z"/>
<path d="M571 925 c-39 -7 -69 -19 -78 -30 -20 -29 -16 -69 11 -94 26 -24 31
-24 150 -5 63 10 94 50 76 98 -18 47 -49 53 -159 31z"/>
</g>
</svg>
